<svg width="56" height="56" viewBox="0 0 56 56" fill="none" xmlns="http://www.w3.org/2000/svg">
<circle r="27" transform="matrix(-1 0 0 1 28 28)" fill="#6246EA"/>
<path d="M28 1C13.0847 1 1 13.0847 1 28C1 42.9153 13.0847 55 28 55C42.9153 55 55 42.9153 55 28C55 13.0847 42.9153 1 28 1ZM40.629 32.7903H28V40.5093C28 41.6742 26.5847 42.2621 25.7681 41.4347L13.3242 28.9254C12.8125 28.4137 12.8125 27.5972 13.3242 27.0855L25.7681 14.5653C26.5956 13.7379 28 14.3258 28 15.4907V23.2097H40.629C41.3476 23.2097 41.9355 23.7976 41.9355 24.5161V31.4839C41.9355 32.2024 41.3476 32.7903 40.629 32.7903Z" fill="white"/>
</svg>
