<svg width="56" height="56" viewBox="0 0 56 56" fill="none" xmlns="http://www.w3.org/2000/svg">
<circle cx="28" cy="28" r="27" fill="#6246EA"/>
<path d="M28 1C42.9153 1 55 13.0847 55 28C55 42.9153 42.9153 55 28 55C13.0847 55 1 42.9153 1 28C1 13.0847 13.0847 1 28 1ZM15.371 32.7903H28V40.5093C28 41.6742 29.4153 42.2621 30.2319 41.4347L42.6758 28.9254C43.1875 28.4137 43.1875 27.5972 42.6758 27.0855L30.2319 14.5653C29.4044 13.7379 28 14.3258 28 15.4907V23.2097H15.371C14.6524 23.2097 14.0645 23.7976 14.0645 24.5161V31.4839C14.0645 32.2024 14.6524 32.7903 15.371 32.7903Z" fill="white"/>
</svg>
